<svg width="32" height="32" viewBox="0 0 32 32" fill="none" xmlns="http://www.w3.org/2000/svg">
<path d="M28.4285 8.49526C28.5032 8.39026 28.3928 8.25469 28.2734 8.30139C27.4242 8.63332 26.5367 8.85727 25.6314 8.96763C26.6394 8.36037 27.4172 7.43597 27.8485 6.34155C27.8925 6.23006 27.7717 6.1305 27.6676 6.1885C26.7308 6.71023 25.7204 7.08593 24.6709 7.3023C24.627 7.31136 24.5817 7.29627 24.5508 7.26345C23.7632 6.42537 22.7265 5.86737 21.5963 5.67454C20.4423 5.47766 19.2562 5.6726 18.2239 6.22878C17.1916 6.78496 16.3716 7.67092 15.8925 8.74772C15.4369 9.77155 15.314 10.9128 15.5387 12.0089C15.5561 12.0939 15.4901 12.1742 15.4041 12.1689C13.3621 12.041 11.3669 11.4932 9.54154 10.5587C7.72078 9.62646 6.10845 8.32963 4.80274 6.74814C4.74479 6.67795 4.63496 6.68703 4.59274 6.76783C4.18645 7.54532 3.97372 8.41189 3.9743 9.29263C3.97265 10.1693 4.186 11.0328 4.59534 11.8063C5.00468 12.5797 5.59732 13.2391 6.32049 13.7256C5.55356 13.7046 4.80159 13.5134 4.11771 13.1667C4.02958 13.1221 3.92386 13.1857 3.92845 13.285C3.98178 14.441 4.40261 15.6016 5.13104 16.492C5.90621 17.4395 6.98214 18.088 8.17682 18.3276C7.71693 18.4688 7.23947 18.5432 6.75879 18.5486C6.49718 18.5456 6.23607 18.5261 5.97699 18.4904C5.88092 18.4771 5.80248 18.5691 5.83611 18.6608C6.19245 19.6326 6.82195 20.4805 7.64966 21.0994C8.53458 21.7612 9.60203 22.1283 10.7035 22.1496C8.84355 23.6255 6.54722 24.4309 4.18056 24.4376C3.93738 24.4384 3.6943 24.4305 3.4518 24.4138C3.31514 24.4044 3.25229 24.588 3.37009 24.6585C5.67601 26.0385 8.31164 26.7679 11 26.7646C12.9848 26.7854 14.9539 26.4072 16.7921 25.6519C18.6304 24.8967 20.301 23.7797 21.7063 22.3661C23.1117 20.9525 24.2237 19.2706 24.9773 17.4188C25.7309 15.567 26.111 13.5823 26.0955 11.5806L26.0955 10.9569C26.0955 10.9158 26.1148 10.8772 26.1472 10.8525C27.0216 10.1867 27.7906 9.39183 28.4285 8.49526Z" fill="#D5048D"/>
</svg>
