<svg width="32" height="32" viewBox="0 0 32 32" fill="none" xmlns="http://www.w3.org/2000/svg">
<path fill-rule="evenodd" clip-rule="evenodd" d="M9.61238 6.75762C13.9124 6.41836 18.2322 6.41836 22.5323 6.75762L25.4208 6.98551C27.0297 7.11245 28.3459 8.32846 28.6119 9.93366C29.2773 13.95 29.2773 18.0499 28.6119 22.0662C28.3459 23.6714 27.0297 24.8874 25.4208 25.0144L22.5323 25.2423C18.2322 25.5815 13.9124 25.5815 9.61238 25.2423L6.72386 25.0144C5.11495 24.8874 3.79874 23.6714 3.53278 22.0662C2.86733 18.0499 2.86733 13.95 3.53278 9.93366C3.79874 8.32846 5.11495 7.11245 6.72386 6.98551L9.61238 6.75762ZM13.4941 19.2111L13.4941 12.7888C13.4941 12.4856 13.822 12.2984 14.0798 12.4543L19.3869 15.6655C19.6373 15.817 19.6373 16.1829 19.3869 16.3344L14.0798 19.5456C13.822 19.7015 13.4941 19.5143 13.4941 19.2111Z" fill="#D5048D"/>
</svg>
