<svg width="32" height="32" viewBox="0 0 32 32" fill="none" xmlns="http://www.w3.org/2000/svg">
<path d="M16.2178 11.7749C13.9039 11.7749 12.0282 13.6665 12.0282 15.9999C12.0282 18.3333 13.9039 20.2249 16.2178 20.2249C18.5317 20.2249 20.4074 18.3333 20.4074 15.9999C20.4074 13.6665 18.5317 11.7749 16.2178 11.7749Z" fill="#D5048D"/>
<path fill-rule="evenodd" clip-rule="evenodd" d="M9.47514 4.40577C13.9202 3.90478 18.5155 3.90478 22.9605 4.40577C25.4078 4.6816 27.3816 6.62611 27.6689 9.10268C28.2003 13.6852 28.2003 18.3145 27.6689 22.897C27.3816 25.3736 25.4078 27.3181 22.9605 27.594C18.5155 28.0949 13.9202 28.0949 9.47514 27.594C7.02789 27.3181 5.054 25.3736 4.76677 22.897C4.23529 18.3145 4.23529 13.6852 4.76677 9.10268C5.054 6.62611 7.02789 4.6816 9.47514 4.40577ZM22.6634 8.19986C21.9514 8.19986 21.3743 8.78189 21.3743 9.49987C21.3743 10.2178 21.9514 10.7999 22.6634 10.7999C23.3753 10.7999 23.9525 10.2178 23.9525 9.49987C23.9525 8.78189 23.3753 8.19986 22.6634 8.19986ZM10.0945 15.9999C10.0945 12.5895 12.836 9.82486 16.2178 9.82486C19.5996 9.82486 22.3411 12.5895 22.3411 15.9999C22.3411 19.4102 19.5996 22.1749 16.2178 22.1749C12.836 22.1749 10.0945 19.4102 10.0945 15.9999Z" fill="#D5048D"/>
</svg>
