<svg width="32" height="32" viewBox="0 0 32 32" fill="none" xmlns="http://www.w3.org/2000/svg">
<path fill-rule="evenodd" clip-rule="evenodd" d="M5.48491 3.6499C4.84415 3.6499 4.32471 4.17373 4.32471 4.8199L4.32471 23.2718C4.32471 23.918 4.84415 24.4418 5.48491 24.4418H10.7903L10.7903 28.3803C10.7903 29.191 11.7623 29.597 12.3308 29.0238L16.8743 24.4418H22.8593C23.167 24.4418 23.4621 24.3186 23.6797 24.0991L27.189 20.5603C27.4065 20.3409 27.5288 20.0433 27.5288 19.733L27.5288 4.8199C27.5288 4.17373 27.0093 3.6499 26.3686 3.6499H5.48491ZM14.9199 10.4099C14.9199 9.87144 14.487 9.43492 13.953 9.43492C13.419 9.43492 12.9862 9.87144 12.9862 10.4099L12.9862 15.9636C12.9862 16.5021 13.419 16.9386 13.953 16.9386C14.487 16.9386 14.9199 16.5021 14.9199 15.9636L14.9199 10.4099ZM21.3854 10.4099C21.3854 9.87144 20.9526 9.43492 20.4186 9.43492C19.8846 9.43492 19.4518 9.87144 19.4518 10.4099L19.4518 15.9636C19.4518 16.5021 19.8846 16.9386 20.4186 16.9386C20.9526 16.9386 21.3854 16.5021 21.3854 15.9636L21.3854 10.4099Z" fill="#D5048D"/>
</svg>
